<svg xmlns="http://www.w3.org/2000/svg" viewBox="0 0 800 450"><defs><style>.cls-1{fill:#e7e7e7;}.cls-2{font-size:21.87px;fill:#075985;font-family:Rubik-ExtraBold, Rubik;font-weight:800;}.cls-3{letter-spacing:-0.02em;}.cls-4{font-size:19px;}.cls-14,.cls-4{fill:#0284c7;}.cls-5{letter-spacing:-0.01em;}.cls-6{letter-spacing:-0.07em;}.cls-7{letter-spacing:-0.02em;}.cls-8{letter-spacing:-0.03em;}.cls-9{fill:#1e293b;}.cls-10{fill:#fefefe;}.cls-11{fill:#d3d3d3;}.cls-12{fill:#fdfdfd;}.cls-13{fill:#a1a1a1;}.cls-15{fill:#499d58;}.cls-16{fill:#497bc9;}.cls-17{fill:#ffb02e;}.cls-18{fill:#716fc4;}</style></defs><g id="Layer_2" data-name="Layer 2"><g id="Layer_2-2" data-name="Layer 2"><rect class="cls-1" width="800" height="450"/><text class="cls-2" transform="translate(330.55 311.24)"><tspan xml:space="preserve">SIN  IM</tspan><tspan class="cls-3" x="73.14" y="0">A</tspan><tspan x="88.86" y="0">GEN </tspan><tspan class="cls-4"><tspan x="6.74" y="22.8" xml:space="preserve">DE  PO</tspan><tspan class="cls-5" x="67.52" y="22.8">R</tspan><tspan class="cls-6" x="80.82" y="22.8">T</tspan><tspan x="91.88" y="22.8">A</tspan><tspan class="cls-7" x="105.85" y="22.8">D</tspan><tspan class="cls-8" x="119.35" y="22.8">A</tspan></tspan></text><path class="cls-9" d="M400,96.32c18.57-.15,32.83,13.42,34.25,32.5.57,7.63-1.83,14.5-5.65,21-3.59,6.1-8.07,11.62-11.56,17.78a45.2,45.2,0,0,0-4,9.27,2.17,2.17,0,0,0,.45,2.39,5.91,5.91,0,0,1,1,6.78,2.13,2.13,0,0,0,0,2,5.43,5.43,0,0,1-.11,5.3,2.17,2.17,0,0,0,.07,2.36,5.77,5.77,0,0,1-.86,6.59c-.48.56-1.11,1.3-1.79,1.16-2.49-.52-3.52,1.16-4.91,2.7-4.58,5.11-12.12,4.38-15.83-1.38-.38-.58-.56-1.21-1.54-1.3a4.94,4.94,0,0,1-4.38-7c.44-1.19.11-2.17.07-3.28-.15-3.82-.1-7.65-.05-11.48a2,2,0,0,1,.66-1.36c2.28-1.7,1.29-3.66.58-5.63-2.36-6.61-6.47-12.2-10.35-17.92s-7.84-11.75-9.44-18.81c-4-17.75,7.18-39,28.95-41.36A21.54,21.54,0,0,1,400,96.32Z"/><path class="cls-9" d="M401.61,227c-.11,7.06-1.05,14,.07,20.89,1.09,6.67,4.72,9,11.33,7.58,5.64-1.24,10.45-4.26,15.19-7.38.5-.32.95-.7,1.46-1a1.3,1.3,0,0,1,1.94.33,1.53,1.53,0,0,1-.16,2,2.59,2.59,0,0,1-.51.42c-5.39,3.76-10.92,7.25-17.43,8.77-8.39,2-13.78-1.84-14.87-10.44-.77-6.09-.47-12.22-.48-18.34v-3.75c-1.73,2.31-3.13,4.17-4.52,6-.67.9-1.47,1.6-2.59.8s-.44-1.79.18-2.63c2.23-3,4.46-6,6.72-9,1.11-1.47,2.26-1.43,3.32,0,2.18,3,4.37,5.93,6.53,8.91.58.8,1.61,1.66.38,2.63s-2.12.08-2.87-.93C404.09,230.2,402.84,228.58,401.61,227Z"/><path class="cls-9" d="M319.42,161.73c0,2.22,0,4.43,0,6.65a2.53,2.53,0,0,1-2.85,2.87c-4.54,0-9.09,0-13.63,0-1.93,0-2.77-1-2.83-2.87-.14-4.5-.16-9,0-13.49.06-1.71.7-2.76,2.59-2.88a108.75,108.75,0,0,1,14.1,0c1.88.12,2.6,1.11,2.61,2.85C319.43,157.16,319.42,159.45,319.42,161.73Z"/><path class="cls-9" d="M500,161.52c0,2.35,0,4.69,0,7a2.34,2.34,0,0,1-2.52,2.68q-7.14,0-14.27,0a2.17,2.17,0,0,1-2.36-2.34,123.4,123.4,0,0,1,0-14.52,2.13,2.13,0,0,1,2.15-2.3,95.31,95.31,0,0,1,14.73,0c1.66.13,2.29,1.1,2.28,2.65,0,2.28,0,4.55,0,6.82Z"/><path class="cls-9" d="M334,114.28c-.35,1.5-1.58,3.1-2.5,4.84-1.41,2.65-3.08,5.15-4.56,7.77-1,1.86-2.44,2.23-4.22,1.22q-5.73-3.27-11.43-6.6c-1.77-1-2.16-2.46-1.11-4.28q3.32-5.7,6.59-11.44a2.67,2.67,0,0,1,4.09-1.12q5.91,3.36,11.79,6.81A2.57,2.57,0,0,1,334,114.28Z"/><path class="cls-9" d="M457.44,242.21a2.43,2.43,0,0,1-1.36,2.62l-12,7a2.5,2.5,0,0,1-3.76-1c-2.35-4-4.66-8-6.89-12A2.51,2.51,0,0,1,434.5,235c3.94-2.26,7.86-4.57,11.8-6.83,1.5-.86,2.87-.67,3.79.89,2.35,4,4.64,8,6.94,12A5.59,5.59,0,0,1,457.44,242.21Z"/><path class="cls-9" d="M476.24,128.56a2.44,2.44,0,0,1-2.81-1.33q-3.49-6-7-12a2.48,2.48,0,0,1,1-3.75c3.93-2.3,7.86-4.6,11.83-6.84,1.68-.94,3.07-.58,4.06,1.2q3.25,5.76,6.6,11.46c1,1.74.74,3.09-1,4.1q-5.79,3.38-11.61,6.71A5.66,5.66,0,0,1,476.24,128.56Z"/><path class="cls-9" d="M334,208.88a2.5,2.5,0,0,1-1.32,2.86q-6,3.51-12,6.94a2.49,2.49,0,0,1-3.75-1q-3.48-6-6.9-12a2.4,2.4,0,0,1,.89-3.6q6.06-3.57,12.18-7a2.27,2.27,0,0,1,3.31.63c2.76,4.16,5.11,8.56,7.51,12.94C334.07,208.8,334.05,209.13,334,208.88Z"/><path class="cls-9" d="M443.29,71.12a34,34,0,0,1,4.88,2.6c2.58,1.39,5,3,7.58,4.46,1.73,1,2.24,2.29,1.25,4q-3.36,5.92-6.8,11.81c-.95,1.63-2.33,1.91-3.94,1q-5.92-3.39-11.82-6.81a2.43,2.43,0,0,1-1.06-3.57c2.31-4.17,4.71-8.29,7.11-12.4C441,71.46,441.66,70.9,443.29,71.12Z"/><path class="cls-9" d="M480.62,219.1c-1.27-.07-2.49-1.13-3.82-1.86-3-1.65-6-3.44-8.91-5.23-2.17-1.32-2.4-2.15-1.18-4.34,2.15-3.83,4.4-7.62,6.57-11.45.94-1.67,2.22-2.09,3.86-1.16q6,3.42,12,6.92c1.53.9,1.8,2.23.9,3.78q-3.42,5.93-6.83,11.84A2.64,2.64,0,0,1,480.62,219.1Z"/><path class="cls-9" d="M352.73,95.43A2.47,2.47,0,0,1,350,94.12c-2.28-3.94-4.57-7.88-6.83-11.83-1-1.73-.55-3.08,1.18-4.07L356,71.51a2.57,2.57,0,0,1,3.93,1q3.42,5.89,6.8,11.82c.79,1.39.79,2.75-.72,3.64-4.1,2.43-8.24,4.8-12.37,7.18A2.76,2.76,0,0,1,352.73,95.43Z"/><path class="cls-9" d="M400,80.77c-2.2,0-4.41-.06-6.62,0-1.84.07-2.9-.78-2.92-2.53-.08-4.78,0-9.57,0-14.35a2.25,2.25,0,0,1,2.38-2.38,135.81,135.81,0,0,1,14.55,0A2.22,2.22,0,0,1,409.68,64c0,4.72,0,9.44,0,14.17a2.33,2.33,0,0,1-2.63,2.57Z"/><path class="cls-9" d="M470.74,101.48a1.7,1.7,0,0,1-.85,1.44,1.23,1.23,0,0,1-1.61-.26,77.2,77.2,0,0,0-9.24-9.2,1.18,1.18,0,0,1-.28-1.75c.5-.71,1.3-1.07,1.92-.62a44.77,44.77,0,0,1,10,10C470.72,101.14,470.71,101.32,470.74,101.48Z"/><path class="cls-9" d="M460.32,232.33a1.63,1.63,0,0,1-1.71-1,1.17,1.17,0,0,1,.45-1.55,68.56,68.56,0,0,0,9-9.1,1.26,1.26,0,0,1,1.95-.2,1.62,1.62,0,0,1,.07,2.52,65.11,65.11,0,0,1-8.71,8.78C461,232.1,460.69,232.4,460.32,232.33Z"/><path class="cls-9" d="M308.87,143.06a66.36,66.36,0,0,1,3.07-11.51c.39-1.05,1.08-1.6,2.21-1.2s1,1.28.65,2.19a62.69,62.69,0,0,0-3,11.51c-.14.92-.45,1.79-1.67,1.58S308.68,144.54,308.87,143.06Z"/><path class="cls-9" d="M417.93,70.15a64,64,0,0,1,12.49,3.34,1.52,1.52,0,0,1,.93,2c-.28,1.08-1.14,1.1-1.94.81a68.83,68.83,0,0,0-12.14-3.17c-.78-.13-1.43-.58-1.27-1.5A1.64,1.64,0,0,1,417.93,70.15Z"/><path class="cls-9" d="M491.45,143.71a1.57,1.57,0,0,1-1.36,2c-1,.17-1.46-.46-1.61-1.38a63.38,63.38,0,0,0-3.2-11.86c-.33-.88-.4-1.64.57-2a1.61,1.61,0,0,1,2.29,1.05,66,66,0,0,1,3,10.34C491.24,142.5,491.34,143.15,491.45,143.71Z"/><path class="cls-9" d="M381.82,70.17c1.53-.13,2.23.28,2.36,1.36s-.58,1.41-1.45,1.56a63.76,63.76,0,0,0-11.67,3.18c-.76.28-1.65.5-2.09-.52a1.51,1.51,0,0,1,.83-2.2A61.28,61.28,0,0,1,381.82,70.17Z"/><path class="cls-9" d="M491.47,178.93a67.09,67.09,0,0,1-3.25,12.75,1.66,1.66,0,0,1-2.23,1.21c-1.24-.37-.91-1.37-.62-2.19A67.94,67.94,0,0,0,488.44,179c.16-.95.61-1.55,1.6-1.38S491.51,178.48,491.47,178.93Z"/><path class="cls-9" d="M330.91,103a1.52,1.52,0,0,1-1-2.5,51.13,51.13,0,0,1,9.28-9.37,1.46,1.46,0,0,1,2.16.35c.6.79.3,1.51-.42,2.1a61.36,61.36,0,0,0-8.68,8.75A1.47,1.47,0,0,1,330.91,103Z"/><path class="cls-9" d="M310.22,177.48c1,0,1.31.71,1.44,1.47a67.16,67.16,0,0,0,3.25,11.9c.31.82.28,1.67-.73,2a1.5,1.5,0,0,1-2-.85,53.49,53.49,0,0,1-3.4-12.75C308.62,178.17,309.32,177.67,310.22,177.48Z"/><path class="cls-10" d="M398.93,99.32c23.89,0,38.26,21.93,30,43.28-1.82,4.72-4.64,8.86-7.46,13-4.69,6.88-9.6,13.63-11.63,21.92-.47,1.91-2.08.76-3.15.93-1.41.24-1-1-1-1.66a57.31,57.31,0,0,1,5.13-24.46c1.75-4,3.28-8.05,3.54-12.47.21-3.73-.44-7.22-2.94-10.14a9.71,9.71,0,0,0-10.14-3.27,3.09,3.09,0,0,1-1.91.19c-6.29-2.2-13.1,2.43-13.62,10.65-.32,5.18,1.3,9.9,3.32,14.51a57.69,57.69,0,0,1,5.31,24.87c0,.81.35,2-1.15,1.81-1.09-.12-2.54.69-3-1.28-1.45-6.61-5-12.2-8.75-17.7-2.73-4-5.68-7.92-8-12.23-6.18-11.73-6.63-23.46.91-34.76C380.65,103.31,389.79,99.56,398.93,99.32Z"/><path class="cls-10" d="M396.31,129.11c-3.95,5.62-3.09,11.63,2,15.31a2.67,2.67,0,0,0,3.56,0,10.22,10.22,0,0,0,2.6-14.4c-.19-.29-.37-.59-.59-.94,4.14-.25,7.1,2.63,7.59,7.22a25.14,25.14,0,0,1-2.27,12.91c-3.88,8.86-6.58,18-6.19,27.77.05,1.12-.4,1.32-1.41,1.36-4.27.18-4.24.22-4.29-3.94A58.69,58.69,0,0,0,392.23,152c-1.66-3.93-3.32-7.87-3.5-12.24A13.92,13.92,0,0,1,389.8,133C391,130.46,393.16,129.16,396.31,129.11Z"/><path class="cls-11" d="M387.89,198.37c-.08-1.64,1-2.23,2.38-2.68,6.41-2.11,12.8-4.26,19.22-6.36.86-.28,2-1.26,2.58.32a2.62,2.62,0,0,1-1.28,3.37,3.58,3.58,0,0,1-.82.32c-6.55,2.19-13.1,4.35-19.63,6.58C388.75,200.46,387.93,200.14,387.89,198.37Z"/><path class="cls-11" d="M387.86,191.12a2.62,2.62,0,0,1,2-2.63q10.26-3.39,20.5-6.81c.69-.23,1.26-.42,1.64.44a2.79,2.79,0,0,1-.63,3.24,2.53,2.53,0,0,1-1,.45c-6.83,2.27-13.68,4.5-20.49,6.83C388.21,193.22,388,192.31,387.86,191.12Z"/><path class="cls-12" d="M396.85,136.3c0-2.71,2.06-6.39,3.35-6.39s3.16,3.56,3.22,5.9a7.25,7.25,0,0,1-.83,3.6c-.57,1.1-1.2,2.6-2.45,2.53s-1.89-1.46-2.45-2.6A7.69,7.69,0,0,1,396.85,136.3Z"/><path class="cls-1" d="M399,200.06c3.78-1.26,7.57-2.54,11.36-3.79,1.44-.48,1.7.72,1.8,1.58.17,1.31-.15,2.57-1.89,2.58H399.12Z"/><path class="cls-1" d="M400.34,181.73c-1.33.47-2.66,1-4,1.4l-5.84,1.93c-.76.25-1.54.68-2.22-.11a2.12,2.12,0,0,1-.24-2.28,2,2,0,0,1,2.06-1.31c3.37,0,6.74,0,10.11,0Z"/><path class="cls-13" d="M405,203.71c-2.78,3.82-7.4,3.86-10.69,0Z"/><path class="cls-9" d="M376.73,246.43c-.34-6.92-5-12.63-12.14-15-4.3-1.42-8.79-1.71-13.26-2.2-7.23-.78-14.48-1.53-19.21-8.23a1.57,1.57,0,0,0-2.35-.34c-1,.74-.49,1.56.06,2.3a17.11,17.11,0,0,0,5.85,5c4.69,2.42,9.83,2.93,14.95,3.54s10.63.91,15.37,3.58c5,2.79,8,6.89,7.83,12.86-.15,4.47-3.87,9-7.74,9.5,3.19-3.2,3.64-7.59,1.11-10.75a8.38,8.38,0,0,0-10.92-2c-4.24,2.7-5,7.37-2.09,13.25a24.11,24.11,0,0,1-12.87-5.28c-.72-.56-1.46-1.21-2.27-.23s-.47,1.87.48,2.63a30.85,30.85,0,0,0,6.67,3.87c5.76,2.62,11.92,2.74,18,2.29C371.85,260.6,377.12,254.07,376.73,246.43ZM359.39,257.6c-1.85.08-4-2.94-4.05-5.58a5.64,5.64,0,0,1,5.28-5.7,4.92,4.92,0,0,1,4.82,5C365.47,254.23,362.35,257.48,359.39,257.6Z"/><path class="cls-14" d="M309.78,154.86a24.9,24.9,0,0,0,4,0c2.34-.38,2.91.69,2.82,2.76-.13,3.08-.18,6.17-.17,9.26,0,1.13-.35,1.51-1.51,1.48-3.38-.07-6.75-.06-10.13,0-1.21,0-1.68-.3-1.65-1.6.06-3.46,0-6.92-.07-10.37,0-1.13.26-1.58,1.46-1.52C306.25,154.93,308,154.86,309.78,154.86Z"/><path class="cls-15" d="M490.33,154.85c1.61,0,3.23.08,4.84,0,1.36-.08,2,.29,2,1.79.1,3.45,0,6.9-.24,10.35-.07,1.14-.63,1.3-1.55,1.29-3.3,0-6.61,0-9.91,0-1,0-1.58-.19-1.67-1.42-.24-3.45-.24-6.9-.2-10.36,0-1.24.38-1.71,1.64-1.65C486.94,154.92,488.64,154.85,490.33,154.85Z"/><path class="cls-16" d="M319.84,107.41c.26.14.52.27.77.42,3.11,1.79,6.21,3.62,9.34,5.37.91.5,1.07.94.51,1.86q-2.83,4.57-5.52,9.24c-.52.91-.92,1-1.85.48-3-1.83-6.06-3.57-9.12-5.29-.74-.41-1.13-.71-.6-1.63,1.84-3.16,3.59-6.38,5.39-9.57C319,107.88,319.13,107.28,319.84,107.41Z"/><path class="cls-17" d="M454.23,242.05c0,.69-.54.81-1,1-3.13,1.77-6.29,3.5-9.39,5.3-.88.51-1.31.27-1.75-.51-1.74-3.07-3.48-6.14-5.29-9.17-.59-1-.26-1.4.57-1.89q4.47-2.61,8.89-5.32c1-.62,1.62-.56,2.24.57,1.66,3,3.43,6,5.15,9C453.88,241.39,454.05,241.72,454.23,242.05Z"/><path class="cls-15" d="M480.31,107.43c.6-.1.8.34,1,.71,1.83,3.26,3.62,6.55,5.48,9.79.5.86.07,1.16-.57,1.53-3.05,1.75-6.11,3.49-9.13,5.3-.91.54-1.4.38-1.92-.52q-2.6-4.48-5.31-8.89c-.61-1-.64-1.62.53-2.26,3-1.66,6-3.43,9-5.16C479.68,107.75,480,107.59,480.31,107.43Z"/><path class="cls-14" d="M330.71,209.05c-.09.5-.53.63-.9.85-3.11,1.8-6.23,3.59-9.32,5.43-.83.49-1.17.33-1.65-.51q-2.67-4.66-5.54-9.23c-.66-1-.38-1.46.59-2,3.08-1.71,6.12-3.5,9.16-5.29.77-.45,1.31-.74,1.89.35,1.76,3.3,3.64,6.54,5.47,9.8Z"/><path class="cls-18" d="M447.28,92.06c-1.11-.6-2.22-1.17-3.31-1.78-2.3-1.29-4.58-2.62-6.89-3.89-.81-.45-.95-.92-.46-1.76q2.81-4.74,5.49-9.54c.48-.85.93-.93,1.73-.44q4.7,2.86,9.44,5.65c.7.41.92.77.46,1.55-1.87,3.15-3.68,6.34-5.53,9.51C448,91.72,447.87,92.21,447.28,92.06Z"/><path class="cls-17" d="M480.53,215.67a4.36,4.36,0,0,1-.57-.21c-3.31-1.91-6.61-3.83-9.93-5.73-.77-.45-.46-.94-.16-1.47,1.76-3.15,3.56-6.28,5.25-9.46.6-1.12,1.17-1,2.07-.45q4.46,2.66,9,5.2c.88.5,1.37.9.68,2-1.91,3.06-3.7,6.19-5.55,9.29C481.09,215.2,480.89,215.61,480.53,215.67Z"/><path class="cls-16" d="M352.77,92.09c-.6.08-.69-.47-.88-.81-1.82-3.11-3.58-6.24-5.42-9.33-.49-.82-.38-1.21.45-1.69,3.17-1.83,6.31-3.72,9.43-5.63.8-.49,1.21-.41,1.69.46,1.82,3.27,3.7,6.5,5.6,9.73.36.61.39,1-.29,1.4-3.3,2.06-6.73,3.89-10.18,5.68Z"/><path class="cls-18" d="M406.82,71.2v1.11c0,5.71,0,5.74-5.81,5.72-2.13,0-4.25-.23-6.37-.27-1,0-1.28-.36-1.27-1.31,0-3.53.05-7.07,0-10.6,0-1,.46-1.35,1.3-1.36,3.61,0,7.21,0,10.82-.11,1.1,0,1.37.54,1.34,1.51C406.79,67.66,406.82,69.43,406.82,71.2Z"/></g></g></svg>