<svg width="282" height="84" viewBox="0 0 282 84" fill="none" xmlns="http://www.w3.org/2000/svg">
<line x1="6.01702" y1="31.2002" x2="53.017" y2="32.2002" stroke="#38BDF8" stroke-width="1.6"/>
<line x1="6.77181" y1="29.7895" x2="15.7718" y2="62.7895" stroke="#075985" stroke-width="1.6"/>
<line x1="6.45685" y1="30.3433" x2="29.4569" y2="46.3433" stroke="#075985" stroke-width="1.6"/>
<line x1="14.4892" y1="61.367" x2="36.4892" y2="78.367" stroke="#075985" stroke-width="1.6"/>
<line x1="28.7616" y1="47.3308" x2="51.9616" y2="32.1308" stroke="#0284C7" stroke-width="1.6"/>
<line x1="29.9789" y1="47.8174" x2="36.7789" y2="76.8174" stroke="#075985" stroke-width="1.6"/>
<line x1="36.4713" y1="79.3996" x2="58.2713" y2="60.1997" stroke="#0284C7" stroke-width="1.6"/>
<line x1="52.3809" y1="32.6265" x2="58.7809" y2="61.4265" stroke="#0284C7" stroke-width="1.6"/>
<line x1="38.1131" y1="9.20804" x2="66.1131" y2="13.208" stroke="#075985" stroke-width="1.6"/>
<line x1="52.3398" y1="32.5483" x2="65.3398" y2="13.5483" stroke="#075985" stroke-width="1.6"/>
<line x1="38.686" y1="9.18839" x2="53.086" y2="33.1884" stroke="#38BDF8" stroke-width="1.6"/>
<line x1="6.56505" y1="30.3286" x2="38.3651" y2="9.72856" stroke="#38BDF8" stroke-width="1.6"/>
<circle cx="66" cy="14" r="6" fill="#075985"/>
<circle cx="29.5" cy="46.5" r="9.5" fill="#075985"/>
<circle cx="14" cy="62" r="6" fill="#0284C7"/>
<circle cx="6" cy="31" r="6" fill="#38BDF8"/>
<circle cx="38.4" cy="10" r="10" fill="#38BDF8"/>
<circle cx="52.8" cy="33.2" r="6" fill="#0284C7"/>
<circle cx="58" cy="60.8" r="8" fill="#0284C7"/>
<circle cx="36" cy="78" r="6" fill="#38BDF8"/>
<path d="M77.616 56.324C76.56 56.324 75.744 56.036 75.168 55.46C74.592 54.884 74.304 54.056 74.304 52.976V33.968C74.304 32.888 74.592 32.06 75.168 31.484C75.744 30.908 76.572 30.62 77.652 30.62H86.508C89.388 30.62 91.608 31.328 93.168 32.744C94.752 34.136 95.544 36.08 95.544 38.576C95.544 40.472 95.064 42.068 94.104 43.364C93.168 44.636 91.8 45.524 90 46.028C91.344 46.388 92.424 47.312 93.24 48.8L95.04 52.04C95.424 52.76 95.592 53.444 95.544 54.092C95.52 54.74 95.268 55.28 94.788 55.712C94.308 56.12 93.6 56.324 92.664 56.324C91.728 56.324 90.96 56.144 90.36 55.784C89.784 55.4 89.268 54.788 88.812 53.948L85.536 47.936C85.248 47.408 84.876 47.048 84.42 46.856C83.988 46.64 83.484 46.532 82.908 46.532H80.928V52.976C80.928 54.056 80.64 54.884 80.064 55.46C79.512 56.036 78.696 56.324 77.616 56.324ZM80.928 41.852H85.32C87.936 41.852 89.244 40.82 89.244 38.756C89.244 36.716 87.936 35.696 85.32 35.696H80.928V41.852ZM103.178 56C100.874 56 99.722 54.86 99.722 52.58V34.04C99.722 31.76 100.874 30.62 103.178 30.62H115.382C117.11 30.62 117.974 31.46 117.974 33.14C117.974 34.868 117.11 35.732 115.382 35.732H106.058V40.556H114.59C116.318 40.556 117.182 41.408 117.182 43.112C117.182 44.816 116.318 45.668 114.59 45.668H106.058V50.888H115.382C117.11 50.888 117.974 51.74 117.974 53.444C117.974 55.148 117.11 56 115.382 56H103.178ZM125.147 56.324C124.091 56.324 123.275 56.036 122.699 55.46C122.123 54.884 121.835 54.056 121.835 52.976V33.968C121.835 32.888 122.123 32.06 122.699 31.484C123.275 30.908 124.103 30.62 125.183 30.62H134.039C136.919 30.62 139.139 31.364 140.699 32.852C142.283 34.316 143.075 36.344 143.075 38.936C143.075 41.528 142.283 43.568 140.699 45.056C139.139 46.52 136.919 47.252 134.039 47.252H128.459V52.976C128.459 54.056 128.171 54.884 127.595 55.46C127.043 56.036 126.227 56.324 125.147 56.324ZM128.459 42.176H132.887C135.479 42.176 136.775 41.096 136.775 38.936C136.775 36.776 135.479 35.696 132.887 35.696H128.459V42.176ZM158.333 56.396C155.765 56.396 153.509 55.856 151.565 54.776C149.645 53.672 148.145 52.136 147.065 50.168C145.985 48.2 145.445 45.908 145.445 43.292C145.445 40.652 145.973 38.36 147.029 36.416C148.109 34.448 149.621 32.924 151.565 31.844C153.509 30.764 155.765 30.224 158.333 30.224C160.901 30.224 163.145 30.764 165.065 31.844C167.009 32.924 168.521 34.448 169.601 36.416C170.681 38.36 171.221 40.652 171.221 43.292C171.221 45.908 170.681 48.2 169.601 50.168C168.521 52.136 167.009 53.672 165.065 54.776C163.145 55.856 160.901 56.396 158.333 56.396ZM158.333 50.852C160.205 50.852 161.669 50.192 162.725 48.872C163.805 47.528 164.345 45.668 164.345 43.292C164.345 40.916 163.817 39.068 162.761 37.748C161.705 36.428 160.229 35.768 158.333 35.768C156.437 35.768 154.961 36.428 153.905 37.748C152.849 39.068 152.321 40.916 152.321 43.292C152.321 45.668 152.849 47.528 153.905 48.872C154.961 50.192 156.437 50.852 158.333 50.852Z" fill="#075985"/>
<path d="M184.592 57.324C183.536 57.324 182.72 57.036 182.144 56.46C181.568 55.884 181.28 55.056 181.28 53.976V37.02H175.628C173.804 37.02 172.892 36.12 172.892 34.32C172.892 32.52 173.804 31.62 175.628 31.62H193.556C195.38 31.62 196.292 32.52 196.292 34.32C196.292 36.12 195.38 37.02 193.556 37.02H187.904V53.976C187.904 55.056 187.616 55.884 187.04 56.46C186.488 57.036 185.672 57.324 184.592 57.324ZM207.889 57.324C207.001 57.324 206.281 57.12 205.729 56.712C205.177 56.28 204.745 55.62 204.433 54.732L197.413 35.184C197.005 34.104 197.065 33.192 197.593 32.448C198.121 31.68 199.045 31.296 200.365 31.296C201.277 31.296 201.973 31.512 202.453 31.944C202.957 32.352 203.353 33 203.641 33.888L208.177 47.568L213.073 33.888C213.409 33 213.817 32.352 214.297 31.944C214.801 31.512 215.461 31.296 216.277 31.296C217.069 31.296 217.705 31.512 218.185 31.944C218.665 32.352 219.061 33.012 219.373 33.924L224.053 47.856L228.841 33.888C229.129 33 229.513 32.352 229.993 31.944C230.497 31.512 231.193 31.296 232.081 31.296C233.185 31.296 233.989 31.68 234.493 32.448C234.997 33.192 235.057 34.104 234.673 35.184L227.581 54.768C227.269 55.632 226.837 56.28 226.285 56.712C225.757 57.12 225.049 57.324 224.161 57.324C223.273 57.324 222.553 57.12 222.001 56.712C221.449 56.28 221.017 55.62 220.705 54.732L216.061 41.736L211.345 54.768C211.009 55.632 210.577 56.28 210.049 56.712C209.521 57.12 208.801 57.324 207.889 57.324ZM241.006 57C238.702 57 237.55 55.86 237.55 53.58V35.04C237.55 32.76 238.702 31.62 241.006 31.62H253.21C254.938 31.62 255.802 32.46 255.802 34.14C255.802 35.868 254.938 36.732 253.21 36.732H243.886V41.556H252.418C254.146 41.556 255.01 42.408 255.01 44.112C255.01 45.816 254.146 46.668 252.418 46.668H243.886V51.888H253.21C254.938 51.888 255.802 52.74 255.802 54.444C255.802 56.148 254.938 57 253.21 57H241.006ZM262.04 57C259.736 57 258.584 55.86 258.584 53.58V35.04C258.584 32.76 259.736 31.62 262.04 31.62H270.824C273.56 31.62 275.672 32.22 277.16 33.42C278.672 34.596 279.428 36.18 279.428 38.172C279.428 39.492 279.092 40.644 278.42 41.628C277.772 42.612 276.86 43.344 275.684 43.824C277.1 44.256 278.192 44.988 278.96 46.02C279.728 47.028 280.112 48.288 280.112 49.8C280.112 52.032 279.308 53.796 277.7 55.092C276.116 56.364 273.944 57 271.184 57H262.04ZM264.92 41.7H269.636C270.836 41.7 271.712 41.484 272.264 41.052C272.84 40.62 273.128 39.96 273.128 39.072C273.128 38.184 272.84 37.536 272.264 37.128C271.712 36.696 270.836 36.48 269.636 36.48H264.92V41.7ZM264.92 52.14H270.284C271.508 52.14 272.396 51.912 272.948 51.456C273.524 50.976 273.812 50.268 273.812 49.332C273.812 48.396 273.524 47.7 272.948 47.244C272.396 46.788 271.508 46.56 270.284 46.56H264.92V52.14Z" fill="#38BDF8"/>
</svg>
