<svg width="84" height="84" viewBox="0 0 84 84" fill="none" xmlns="http://www.w3.org/2000/svg">
<line x1="12.017" y1="31.2002" x2="59.017" y2="32.2002" stroke="#38BDF8" stroke-width="1.6"/>
<line x1="12.7718" y1="29.7895" x2="21.7718" y2="62.7895" stroke="#075985" stroke-width="1.6"/>
<line x1="12.4569" y1="30.3433" x2="35.4569" y2="46.3433" stroke="#075985" stroke-width="1.6"/>
<line x1="20.4892" y1="61.367" x2="42.4892" y2="78.367" stroke="#075985" stroke-width="1.6"/>
<line x1="34.7616" y1="47.3308" x2="57.9616" y2="32.1308" stroke="#0284C7" stroke-width="1.6"/>
<line x1="35.9789" y1="47.8174" x2="42.7789" y2="76.8174" stroke="#075985" stroke-width="1.6"/>
<line x1="42.4713" y1="79.3996" x2="64.2713" y2="60.1997" stroke="#0284C7" stroke-width="1.6"/>
<line x1="58.3809" y1="32.6265" x2="64.7809" y2="61.4265" stroke="#0284C7" stroke-width="1.6"/>
<line x1="44.1131" y1="9.20804" x2="72.1131" y2="13.208" stroke="#075985" stroke-width="1.6"/>
<line x1="58.3398" y1="32.5483" x2="71.3398" y2="13.5483" stroke="#075985" stroke-width="1.6"/>
<line x1="44.686" y1="9.18839" x2="59.086" y2="33.1884" stroke="#38BDF8" stroke-width="1.6"/>
<line x1="12.565" y1="30.3286" x2="44.3651" y2="9.72856" stroke="#38BDF8" stroke-width="1.6"/>
<circle cx="72" cy="14" r="6" fill="#075985"/>
<circle cx="35.5" cy="46.5" r="9.5" fill="#075985"/>
<circle cx="20" cy="62" r="6" fill="#0284C7"/>
<circle cx="12" cy="31" r="6" fill="#38BDF8"/>
<circle cx="44.4" cy="10" r="10" fill="#38BDF8"/>
<circle cx="58.8" cy="33.2" r="6" fill="#0284C7"/>
<circle cx="64" cy="60.8" r="8" fill="#0284C7"/>
<circle cx="42" cy="78" r="6" fill="#38BDF8"/>
</svg>
