<svg xmlns="http://www.w3.org/2000/svg" viewBox="0 0 419.17 200"><defs><style>.cls-1,.cls-2,.cls-3{fill:none;stroke-width:3px;}.cls-1{stroke:#38bdf8;}.cls-2{stroke:#075985;}.cls-3{stroke:#0284c7;}.cls-4{fill:#075985;}.cls-5{fill:#0284c7;}.cls-6{fill:#38bdf8;}</style></defs><g id="Layer_2" data-name="Layer 2"><g id="Layer_5" data-name="Layer 5"><line class="cls-1" x1="14.33" y1="74.29" x2="126.23" y2="76.67"/><line class="cls-2" x1="16.12" y1="70.93" x2="37.55" y2="149.5"/><line class="cls-2" x1="15.37" y1="72.25" x2="70.14" y2="110.34"/><line class="cls-2" x1="34.5" y1="146.11" x2="86.88" y2="186.59"/><line class="cls-3" x1="68.48" y1="112.69" x2="123.72" y2="76.5"/><line class="cls-2" x1="71.38" y1="113.85" x2="87.57" y2="182.9"/><line class="cls-3" x1="86.84" y1="189.05" x2="138.74" y2="143.33"/><line class="cls-3" x1="124.72" y1="77.68" x2="139.95" y2="146.25"/><line class="cls-2" x1="90.75" y1="21.92" x2="157.41" y2="31.45"/><line class="cls-2" x1="124.62" y1="77.5" x2="155.57" y2="32.26"/><line class="cls-1" x1="92.11" y1="21.88" x2="126.4" y2="79.02"/><line class="cls-1" x1="15.63" y1="72.21" x2="91.35" y2="23.16"/><circle class="cls-4" cx="157.14" cy="33.33" r="14.29"/><circle class="cls-4" cx="70.24" cy="110.71" r="22.62"/><circle class="cls-5" cx="33.33" cy="147.62" r="14.29"/><circle class="cls-6" cx="14.29" cy="73.81" r="14.29"/><circle class="cls-6" cx="91.43" cy="23.81" r="23.81"/><circle class="cls-5" cx="125.71" cy="79.05" r="14.29"/><circle class="cls-5" cx="138.1" cy="144.76" r="19.05"/><circle class="cls-6" cx="85.71" cy="185.71" r="14.29"/><path class="cls-4" d="M199.61,98a1.74,1.74,0,0,1-1.22-.51,1.63,1.63,0,0,1-.54-1.25V52.43a1.66,1.66,0,0,1,.54-1.25,1.77,1.77,0,0,1,1.22-.5h19.26q9.19,0,14.43,4.19t5.24,11.69a14.36,14.36,0,0,1-2.16,8,15.38,15.38,0,0,1-5.68,5.21l8.79,16a1.75,1.75,0,0,1,.2.74,1.48,1.48,0,0,1-.4,1,1.31,1.31,0,0,1-1,.44H226.85a2.72,2.72,0,0,1-2-.64,3.35,3.35,0,0,1-.88-1.18l-6.76-13.93h-4.87v14A1.73,1.73,0,0,1,210.63,98Zm12.77-26.9h6.42a4.43,4.43,0,0,0,3.52-1.32,4.79,4.79,0,0,0,1.15-3.28,5.35,5.35,0,0,0-1.12-3.44,4.22,4.22,0,0,0-3.55-1.42h-6.42Z"/><path class="cls-4" d="M247.4,98a1.72,1.72,0,0,1-1.22-.51,1.63,1.63,0,0,1-.54-1.25V52.43a1.66,1.66,0,0,1,.54-1.25,1.75,1.75,0,0,1,1.22-.5h33.12a1.84,1.84,0,0,1,1.28.5,1.66,1.66,0,0,1,.54,1.25v8a1.69,1.69,0,0,1-.54,1.22,1.75,1.75,0,0,1-1.28.54H259.63v6.69H279a1.79,1.79,0,0,1,1.28.51,1.63,1.63,0,0,1,.54,1.25v7.3a1.66,1.66,0,0,1-.54,1.25,1.82,1.82,0,0,1-1.28.5h-19.4V86.5h21.43a1.84,1.84,0,0,1,1.82,1.83v7.9a1.63,1.63,0,0,1-.54,1.25,1.81,1.81,0,0,1-1.28.51Z"/><path class="cls-4" d="M291.53,98a1.71,1.71,0,0,1-1.21-.51,1.63,1.63,0,0,1-.54-1.25V52.43a1.66,1.66,0,0,1,.54-1.25,1.75,1.75,0,0,1,1.21-.5h19.74a27.31,27.31,0,0,1,10.24,1.75,14.69,14.69,0,0,1,6.8,5.34,15.68,15.68,0,0,1,2.43,9,15.17,15.17,0,0,1-2.43,8.89,14.08,14.08,0,0,1-6.8,5.11,29.34,29.34,0,0,1-10.24,1.62h-6.42V96.23A1.74,1.74,0,0,1,303.09,98Zm13.05-26.5h6.35a5,5,0,0,0,3.35-1.18,4.59,4.59,0,0,0,1.39-3.68,5.85,5.85,0,0,0-1.09-3.48,4.14,4.14,0,0,0-3.65-1.52h-6.35Z"/><path class="cls-4" d="M356.9,98.67a28.66,28.66,0,0,1-11.26-2,16.66,16.66,0,0,1-7.5-6.12,19.12,19.12,0,0,1-2.94-10.17c-.05-1.89-.07-3.84-.07-5.85s0-4,.07-6a19.23,19.23,0,0,1,2.94-10.14,17.19,17.19,0,0,1,7.54-6.25,30.43,30.43,0,0,1,22.37,0,17.39,17.39,0,0,1,7.57,6.25,18.53,18.53,0,0,1,2.91,10.14c.09,2,.13,4,.13,6s0,4-.13,5.85a19.12,19.12,0,0,1-2.94,10.17,16.63,16.63,0,0,1-7.51,6.12A28.39,28.39,0,0,1,356.9,98.67Zm0-11.49a6.5,6.5,0,0,0,4.66-1.73c1.22-1.15,1.85-3,1.89-5.51.09-1.93.14-3.81.14-5.64s0-3.68-.14-5.58a9.44,9.44,0,0,0-.91-4.12,5.33,5.33,0,0,0-2.3-2.37,7.3,7.3,0,0,0-3.34-.74,7.53,7.53,0,0,0-3.38.74,5.29,5.29,0,0,0-2.33,2.37,9.43,9.43,0,0,0-.92,4.12q-.06,2.85-.06,5.58t.06,5.64c.09,2.53.74,4.36,1.93,5.51A6.49,6.49,0,0,0,356.9,87.18Z"/><path class="cls-5" d="M260.07,152a1.49,1.49,0,0,1-1.14-.47,1.56,1.56,0,0,1-.44-1.11V117.64H247.22a1.5,1.5,0,0,1-1.14-.48,1.59,1.59,0,0,1-.44-1.11v-6.77a1.51,1.51,0,0,1,1.58-1.58h34a1.51,1.51,0,0,1,1.58,1.58v6.77a1.59,1.59,0,0,1-.44,1.11,1.5,1.5,0,0,1-1.14.48H270v32.78a1.61,1.61,0,0,1-.44,1.11,1.52,1.52,0,0,1-1.14.47Z"/><path class="cls-5" d="M295.7,152a2.31,2.31,0,0,1-1.71-.63,2.56,2.56,0,0,1-.76-1.46l-6.9-40.44a1,1,0,0,1-.06-.28V109a1.26,1.26,0,0,1,.41-.92,1.28,1.28,0,0,1,.92-.41h7.84c1.18,0,1.84.47,2,1.39l4.12,24.68,4.55-14.55a4.66,4.66,0,0,1,.64-1.11,1.68,1.68,0,0,1,1.45-.6h4.56a1.77,1.77,0,0,1,1.52.6,3.45,3.45,0,0,1,.57,1.11l4.55,14.55,4.12-24.68c.13-.92.78-1.39,2-1.39h7.85a1.36,1.36,0,0,1,1,.41,1.3,1.3,0,0,1,.41.92.61.61,0,0,1,0,.16,1,1,0,0,0,0,.28l-6.9,40.44a2.63,2.63,0,0,1-.76,1.46,2.31,2.31,0,0,1-1.71.63h-6a2.23,2.23,0,0,1-1.65-.57,3.21,3.21,0,0,1-.76-1.08l-6.39-18.1-6.39,18.1a3.37,3.37,0,0,1-.73,1.08,2.11,2.11,0,0,1-1.61.57Z"/><path class="cls-5" d="M342.78,152a1.52,1.52,0,0,1-1.14-.47,1.56,1.56,0,0,1-.44-1.11V109.28a1.54,1.54,0,0,1,.44-1.14,1.58,1.58,0,0,1,1.14-.44h29.55a1.52,1.52,0,0,1,1.59,1.58v6a1.52,1.52,0,0,1-1.59,1.58H352.15v8.55h18.79a1.49,1.49,0,0,1,1.14.47,1.64,1.64,0,0,1,.44,1.17v5.51a1.56,1.56,0,0,1-.44,1.11,1.49,1.49,0,0,1-1.14.47H352.15v8.8h20.69a1.51,1.51,0,0,1,1.58,1.58v5.95a1.61,1.61,0,0,1-.44,1.11,1.52,1.52,0,0,1-1.14.47Z"/><path class="cls-5" d="M383.22,152a1.49,1.49,0,0,1-1.14-.47,1.56,1.56,0,0,1-.44-1.11V109.28a1.51,1.51,0,0,1,1.58-1.58h19.3a22.49,22.49,0,0,1,8.92,1.52,10.83,10.83,0,0,1,5.16,4.33,12.82,12.82,0,0,1,1.68,6.68,9,9,0,0,1-.86,4,9.7,9.7,0,0,1-2.08,2.88,9.49,9.49,0,0,1-2.31,1.64,11.34,11.34,0,0,1,4.27,3.74,10.15,10.15,0,0,1,1.87,6.07,13.41,13.41,0,0,1-1.87,7.19,12.11,12.11,0,0,1-5.44,4.62,21.4,21.4,0,0,1-8.77,1.61ZM393,125.29h8.23a5.14,5.14,0,0,0,3.89-1.36,4.7,4.7,0,0,0,1.29-3.38,4.54,4.54,0,0,0-1.29-3.33,5.32,5.32,0,0,0-3.89-1.29H393Zm0,18.48h8.79a5.18,5.18,0,0,0,4.12-1.58,5.22,5.22,0,0,0-4.12-8.86H393Z"/></g></g></svg>